<mxfile host="Electron" agent="Mozilla/5.0 (Windows NT 10.0; Win64; x64) AppleWebKit/537.36 (KHTML, like Gecko) draw.io/28.0.6 Chrome/138.0.7204.100 Electron/37.2.3 Safari/537.36" version="28.0.6">
  <diagram name="Page-1" id="UuJuzsgmH8O54syuab76">
    <mxGraphModel dx="1705" dy="2200" grid="1" gridSize="10" guides="1" tooltips="1" connect="1" arrows="1" fold="1" page="1" pageScale="1" pageWidth="2339" pageHeight="3300" math="0" shadow="0">
      <root>
        <mxCell id="0" />
        <mxCell id="1" parent="0" />
        <mxCell id="-yfBrM63y5aBobuTD75u-45" value="" style="edgeStyle=orthogonalEdgeStyle;rounded=0;orthogonalLoop=1;jettySize=auto;html=1;shape=link;" edge="1" parent="1" source="-yfBrM63y5aBobuTD75u-1" target="-yfBrM63y5aBobuTD75u-44">
          <mxGeometry relative="1" as="geometry" />
        </mxCell>
        <mxCell id="-yfBrM63y5aBobuTD75u-1" value="Consultant" style="rounded=0;whiteSpace=wrap;html=1;" vertex="1" parent="1">
          <mxGeometry x="740" y="570" width="120" height="60" as="geometry" />
        </mxCell>
        <mxCell id="-yfBrM63y5aBobuTD75u-19" style="edgeStyle=orthogonalEdgeStyle;rounded=0;orthogonalLoop=1;jettySize=auto;html=1;entryX=0.5;entryY=1;entryDx=0;entryDy=0;" edge="1" parent="1" source="-yfBrM63y5aBobuTD75u-2" target="-yfBrM63y5aBobuTD75u-15">
          <mxGeometry relative="1" as="geometry" />
        </mxCell>
        <mxCell id="-yfBrM63y5aBobuTD75u-20" style="edgeStyle=orthogonalEdgeStyle;rounded=0;orthogonalLoop=1;jettySize=auto;html=1;entryX=0.5;entryY=1;entryDx=0;entryDy=0;" edge="1" parent="1" source="-yfBrM63y5aBobuTD75u-2" target="-yfBrM63y5aBobuTD75u-12">
          <mxGeometry relative="1" as="geometry" />
        </mxCell>
        <mxCell id="-yfBrM63y5aBobuTD75u-2" value="Ward" style="rounded=0;whiteSpace=wrap;html=1;" vertex="1" parent="1">
          <mxGeometry x="1470" y="580" width="120" height="60" as="geometry" />
        </mxCell>
        <mxCell id="-yfBrM63y5aBobuTD75u-33" style="edgeStyle=orthogonalEdgeStyle;rounded=0;orthogonalLoop=1;jettySize=auto;html=1;entryX=0.5;entryY=1;entryDx=0;entryDy=0;exitX=0.75;exitY=1;exitDx=0;exitDy=0;" edge="1" parent="1" source="-yfBrM63y5aBobuTD75u-3" target="-yfBrM63y5aBobuTD75u-24">
          <mxGeometry relative="1" as="geometry" />
        </mxCell>
        <mxCell id="-yfBrM63y5aBobuTD75u-34" style="edgeStyle=orthogonalEdgeStyle;rounded=0;orthogonalLoop=1;jettySize=auto;html=1;entryX=0.5;entryY=0;entryDx=0;entryDy=0;exitX=0.75;exitY=1;exitDx=0;exitDy=0;" edge="1" parent="1" source="-yfBrM63y5aBobuTD75u-3" target="-yfBrM63y5aBobuTD75u-31">
          <mxGeometry relative="1" as="geometry">
            <Array as="points">
              <mxPoint x="1550" y="1280" />
              <mxPoint x="1740" y="1280" />
            </Array>
          </mxGeometry>
        </mxCell>
        <mxCell id="-yfBrM63y5aBobuTD75u-35" style="edgeStyle=orthogonalEdgeStyle;rounded=0;orthogonalLoop=1;jettySize=auto;html=1;" edge="1" parent="1" source="-yfBrM63y5aBobuTD75u-3" target="-yfBrM63y5aBobuTD75u-14">
          <mxGeometry relative="1" as="geometry" />
        </mxCell>
        <mxCell id="-yfBrM63y5aBobuTD75u-52" value="" style="edgeStyle=orthogonalEdgeStyle;rounded=0;orthogonalLoop=1;jettySize=auto;html=1;" edge="1" parent="1" source="-yfBrM63y5aBobuTD75u-3" target="-yfBrM63y5aBobuTD75u-51">
          <mxGeometry relative="1" as="geometry" />
        </mxCell>
        <mxCell id="-yfBrM63y5aBobuTD75u-63" value="" style="edgeStyle=orthogonalEdgeStyle;rounded=0;orthogonalLoop=1;jettySize=auto;html=1;" edge="1" parent="1" source="-yfBrM63y5aBobuTD75u-3" target="-yfBrM63y5aBobuTD75u-62">
          <mxGeometry relative="1" as="geometry" />
        </mxCell>
        <mxCell id="-yfBrM63y5aBobuTD75u-69" value="" style="edgeStyle=orthogonalEdgeStyle;rounded=0;orthogonalLoop=1;jettySize=auto;html=1;" edge="1" parent="1" source="-yfBrM63y5aBobuTD75u-3" target="-yfBrM63y5aBobuTD75u-68">
          <mxGeometry relative="1" as="geometry">
            <Array as="points">
              <mxPoint x="1620" y="1170" />
            </Array>
          </mxGeometry>
        </mxCell>
        <mxCell id="-yfBrM63y5aBobuTD75u-3" value="Nurse" style="rounded=0;whiteSpace=wrap;html=1;" vertex="1" parent="1">
          <mxGeometry x="1460" y="1170" width="120" height="60" as="geometry" />
        </mxCell>
        <mxCell id="-yfBrM63y5aBobuTD75u-16" style="edgeStyle=orthogonalEdgeStyle;rounded=0;orthogonalLoop=1;jettySize=auto;html=1;entryX=1;entryY=0.5;entryDx=0;entryDy=0;" edge="1" parent="1" source="-yfBrM63y5aBobuTD75u-4" target="-yfBrM63y5aBobuTD75u-9">
          <mxGeometry relative="1" as="geometry" />
        </mxCell>
        <mxCell id="-yfBrM63y5aBobuTD75u-17" style="edgeStyle=orthogonalEdgeStyle;rounded=0;orthogonalLoop=1;jettySize=auto;html=1;entryX=1;entryY=0.5;entryDx=0;entryDy=0;" edge="1" parent="1" source="-yfBrM63y5aBobuTD75u-4" target="-yfBrM63y5aBobuTD75u-8">
          <mxGeometry relative="1" as="geometry" />
        </mxCell>
        <mxCell id="-yfBrM63y5aBobuTD75u-18" style="edgeStyle=orthogonalEdgeStyle;rounded=0;orthogonalLoop=1;jettySize=auto;html=1;entryX=1;entryY=0.5;entryDx=0;entryDy=0;" edge="1" parent="1" source="-yfBrM63y5aBobuTD75u-4" target="-yfBrM63y5aBobuTD75u-10">
          <mxGeometry relative="1" as="geometry" />
        </mxCell>
        <mxCell id="-yfBrM63y5aBobuTD75u-37" value="" style="edgeStyle=entityRelationEdgeStyle;rounded=0;orthogonalLoop=1;jettySize=auto;html=1;" edge="1" parent="1" source="-yfBrM63y5aBobuTD75u-4" target="-yfBrM63y5aBobuTD75u-36">
          <mxGeometry relative="1" as="geometry" />
        </mxCell>
        <mxCell id="-yfBrM63y5aBobuTD75u-4" value="Patient" style="rounded=0;whiteSpace=wrap;html=1;" vertex="1" parent="1">
          <mxGeometry x="740" y="1120" width="120" height="60" as="geometry" />
        </mxCell>
        <mxCell id="-yfBrM63y5aBobuTD75u-28" style="edgeStyle=orthogonalEdgeStyle;rounded=0;orthogonalLoop=1;jettySize=auto;html=1;entryX=0.5;entryY=0;entryDx=0;entryDy=0;" edge="1" parent="1" source="-yfBrM63y5aBobuTD75u-5" target="-yfBrM63y5aBobuTD75u-6">
          <mxGeometry relative="1" as="geometry" />
        </mxCell>
        <mxCell id="-yfBrM63y5aBobuTD75u-29" style="edgeStyle=orthogonalEdgeStyle;rounded=0;orthogonalLoop=1;jettySize=auto;html=1;entryX=0.5;entryY=0;entryDx=0;entryDy=0;" edge="1" parent="1" source="-yfBrM63y5aBobuTD75u-5" target="-yfBrM63y5aBobuTD75u-7">
          <mxGeometry relative="1" as="geometry" />
        </mxCell>
        <mxCell id="-yfBrM63y5aBobuTD75u-30" style="edgeStyle=orthogonalEdgeStyle;rounded=0;orthogonalLoop=1;jettySize=auto;html=1;entryX=0.5;entryY=0;entryDx=0;entryDy=0;" edge="1" parent="1" source="-yfBrM63y5aBobuTD75u-5" target="-yfBrM63y5aBobuTD75u-26">
          <mxGeometry relative="1" as="geometry" />
        </mxCell>
        <mxCell id="-yfBrM63y5aBobuTD75u-58" style="edgeStyle=orthogonalEdgeStyle;rounded=0;orthogonalLoop=1;jettySize=auto;html=1;entryX=0.5;entryY=1;entryDx=0;entryDy=0;" edge="1" parent="1" source="-yfBrM63y5aBobuTD75u-5" target="-yfBrM63y5aBobuTD75u-51">
          <mxGeometry relative="1" as="geometry" />
        </mxCell>
        <mxCell id="-yfBrM63y5aBobuTD75u-5" value="Drug" style="rounded=0;whiteSpace=wrap;html=1;" vertex="1" parent="1">
          <mxGeometry x="1120" y="1360" width="120" height="60" as="geometry" />
        </mxCell>
        <mxCell id="-yfBrM63y5aBobuTD75u-6" value="Code_Number" style="ellipse;whiteSpace=wrap;html=1;" vertex="1" parent="1">
          <mxGeometry x="1190" y="1500" width="80" height="40" as="geometry" />
        </mxCell>
        <mxCell id="-yfBrM63y5aBobuTD75u-7" value="Dogase" style="ellipse;whiteSpace=wrap;html=1;" vertex="1" parent="1">
          <mxGeometry x="1120" y="1540" width="80" height="40" as="geometry" />
        </mxCell>
        <mxCell id="-yfBrM63y5aBobuTD75u-8" value="DoB" style="ellipse;whiteSpace=wrap;html=1;" vertex="1" parent="1">
          <mxGeometry x="520" y="1140" width="80" height="40" as="geometry" />
        </mxCell>
        <mxCell id="-yfBrM63y5aBobuTD75u-9" value="ID" style="ellipse;whiteSpace=wrap;html=1;" vertex="1" parent="1">
          <mxGeometry x="590" y="1060" width="80" height="40" as="geometry" />
        </mxCell>
        <mxCell id="-yfBrM63y5aBobuTD75u-10" value="Name" style="ellipse;whiteSpace=wrap;html=1;" vertex="1" parent="1">
          <mxGeometry x="600" y="1210" width="80" height="40" as="geometry" />
        </mxCell>
        <mxCell id="-yfBrM63y5aBobuTD75u-11" value="Name" style="ellipse;whiteSpace=wrap;html=1;" vertex="1" parent="1">
          <mxGeometry x="790" y="470" width="80" height="40" as="geometry" />
        </mxCell>
        <mxCell id="-yfBrM63y5aBobuTD75u-12" value="ID" style="ellipse;whiteSpace=wrap;html=1;" vertex="1" parent="1">
          <mxGeometry x="1410" y="480" width="80" height="40" as="geometry" />
        </mxCell>
        <mxCell id="-yfBrM63y5aBobuTD75u-13" value="ID" style="ellipse;whiteSpace=wrap;html=1;" vertex="1" parent="1">
          <mxGeometry x="680" y="480" width="80" height="40" as="geometry" />
        </mxCell>
        <mxCell id="-yfBrM63y5aBobuTD75u-14" value="Name" style="ellipse;whiteSpace=wrap;html=1;" vertex="1" parent="1">
          <mxGeometry x="1480" y="1310" width="80" height="40" as="geometry" />
        </mxCell>
        <mxCell id="-yfBrM63y5aBobuTD75u-15" value="Name" style="ellipse;whiteSpace=wrap;html=1;" vertex="1" parent="1">
          <mxGeometry x="1510" y="480" width="80" height="40" as="geometry" />
        </mxCell>
        <mxCell id="-yfBrM63y5aBobuTD75u-21" style="edgeStyle=orthogonalEdgeStyle;rounded=0;orthogonalLoop=1;jettySize=auto;html=1;entryX=0.39;entryY=1.11;entryDx=0;entryDy=0;entryPerimeter=0;" edge="1" parent="1" source="-yfBrM63y5aBobuTD75u-1" target="-yfBrM63y5aBobuTD75u-11">
          <mxGeometry relative="1" as="geometry" />
        </mxCell>
        <mxCell id="-yfBrM63y5aBobuTD75u-22" style="edgeStyle=orthogonalEdgeStyle;rounded=0;orthogonalLoop=1;jettySize=auto;html=1;entryX=0.618;entryY=0.978;entryDx=0;entryDy=0;entryPerimeter=0;" edge="1" parent="1" source="-yfBrM63y5aBobuTD75u-1" target="-yfBrM63y5aBobuTD75u-13">
          <mxGeometry relative="1" as="geometry" />
        </mxCell>
        <mxCell id="-yfBrM63y5aBobuTD75u-24" value="Address" style="ellipse;whiteSpace=wrap;html=1;" vertex="1" parent="1">
          <mxGeometry x="1650" y="1138" width="80" height="40" as="geometry" />
        </mxCell>
        <mxCell id="-yfBrM63y5aBobuTD75u-26" value="Brand_Name" style="ellipse;shape=doubleEllipse;whiteSpace=wrap;html=1;" vertex="1" parent="1">
          <mxGeometry x="1010" y="1500" width="100" height="60" as="geometry" />
        </mxCell>
        <mxCell id="-yfBrM63y5aBobuTD75u-31" value="Number" style="ellipse;whiteSpace=wrap;html=1;" vertex="1" parent="1">
          <mxGeometry x="1700" y="1220" width="80" height="40" as="geometry" />
        </mxCell>
        <mxCell id="-yfBrM63y5aBobuTD75u-38" style="edgeStyle=entityRelationEdgeStyle;rounded=0;orthogonalLoop=1;jettySize=auto;html=1;entryX=0;entryY=0.5;entryDx=0;entryDy=0;shape=link;" edge="1" parent="1" source="-yfBrM63y5aBobuTD75u-36" target="-yfBrM63y5aBobuTD75u-2">
          <mxGeometry relative="1" as="geometry" />
        </mxCell>
        <mxCell id="-yfBrM63y5aBobuTD75u-36" value="Host" style="rhombus;whiteSpace=wrap;html=1;rounded=0;" vertex="1" parent="1">
          <mxGeometry x="1160" y="830" width="80" height="80" as="geometry" />
        </mxCell>
        <mxCell id="-yfBrM63y5aBobuTD75u-39" value="1" style="text;html=1;align=center;verticalAlign=middle;resizable=0;points=[];autosize=1;strokeColor=none;fillColor=none;" vertex="1" parent="1">
          <mxGeometry x="1415" y="578" width="30" height="30" as="geometry" />
        </mxCell>
        <mxCell id="-yfBrM63y5aBobuTD75u-41" value="" style="edgeStyle=orthogonalEdgeStyle;rounded=0;orthogonalLoop=1;jettySize=auto;html=1;" edge="1" parent="1" source="-yfBrM63y5aBobuTD75u-40" target="-yfBrM63y5aBobuTD75u-4">
          <mxGeometry relative="1" as="geometry" />
        </mxCell>
        <mxCell id="-yfBrM63y5aBobuTD75u-40" value="M" style="text;html=1;align=center;verticalAlign=middle;resizable=0;points=[];autosize=1;strokeColor=none;fillColor=none;" vertex="1" parent="1">
          <mxGeometry x="865" y="1108" width="30" height="30" as="geometry" />
        </mxCell>
        <mxCell id="-yfBrM63y5aBobuTD75u-42" value="1" style="text;html=1;align=center;verticalAlign=middle;resizable=0;points=[];autosize=1;strokeColor=none;fillColor=none;" vertex="1" parent="1">
          <mxGeometry x="865" y="1148" width="30" height="30" as="geometry" />
        </mxCell>
        <mxCell id="-yfBrM63y5aBobuTD75u-43" value="1" style="text;html=1;align=center;verticalAlign=middle;resizable=0;points=[];autosize=1;strokeColor=none;fillColor=none;" vertex="1" parent="1">
          <mxGeometry x="1435" y="608" width="30" height="30" as="geometry" />
        </mxCell>
        <mxCell id="-yfBrM63y5aBobuTD75u-46" style="edgeStyle=orthogonalEdgeStyle;rounded=0;orthogonalLoop=1;jettySize=auto;html=1;entryX=0.5;entryY=0;entryDx=0;entryDy=0;" edge="1" parent="1" source="-yfBrM63y5aBobuTD75u-44" target="-yfBrM63y5aBobuTD75u-4">
          <mxGeometry relative="1" as="geometry" />
        </mxCell>
        <mxCell id="-yfBrM63y5aBobuTD75u-44" value="Assign" style="rhombus;whiteSpace=wrap;html=1;rounded=0;" vertex="1" parent="1">
          <mxGeometry x="760" y="820" width="80" height="80" as="geometry" />
        </mxCell>
        <mxCell id="-yfBrM63y5aBobuTD75u-47" value="1" style="text;html=1;align=center;verticalAlign=middle;resizable=0;points=[];autosize=1;strokeColor=none;fillColor=none;" vertex="1" parent="1">
          <mxGeometry x="765" y="628" width="30" height="30" as="geometry" />
        </mxCell>
        <mxCell id="-yfBrM63y5aBobuTD75u-48" value="M" style="text;html=1;align=center;verticalAlign=middle;resizable=0;points=[];autosize=1;strokeColor=none;fillColor=none;" vertex="1" parent="1">
          <mxGeometry x="765" y="1068" width="30" height="30" as="geometry" />
        </mxCell>
        <mxCell id="-yfBrM63y5aBobuTD75u-49" value="1" style="text;html=1;align=center;verticalAlign=middle;resizable=0;points=[];autosize=1;strokeColor=none;fillColor=none;" vertex="1" parent="1">
          <mxGeometry x="795" y="1078" width="30" height="30" as="geometry" />
        </mxCell>
        <mxCell id="-yfBrM63y5aBobuTD75u-50" value="M" style="text;html=1;align=center;verticalAlign=middle;resizable=0;points=[];autosize=1;strokeColor=none;fillColor=none;" vertex="1" parent="1">
          <mxGeometry x="805" y="628" width="30" height="30" as="geometry" />
        </mxCell>
        <mxCell id="-yfBrM63y5aBobuTD75u-55" style="edgeStyle=orthogonalEdgeStyle;rounded=0;orthogonalLoop=1;jettySize=auto;html=1;entryX=0.5;entryY=1;entryDx=0;entryDy=0;" edge="1" parent="1" source="-yfBrM63y5aBobuTD75u-51" target="-yfBrM63y5aBobuTD75u-53">
          <mxGeometry relative="1" as="geometry" />
        </mxCell>
        <mxCell id="-yfBrM63y5aBobuTD75u-56" style="edgeStyle=orthogonalEdgeStyle;rounded=0;orthogonalLoop=1;jettySize=auto;html=1;entryX=0.5;entryY=1;entryDx=0;entryDy=0;" edge="1" parent="1" source="-yfBrM63y5aBobuTD75u-51" target="-yfBrM63y5aBobuTD75u-54">
          <mxGeometry relative="1" as="geometry" />
        </mxCell>
        <mxCell id="-yfBrM63y5aBobuTD75u-57" style="edgeStyle=orthogonalEdgeStyle;rounded=0;orthogonalLoop=1;jettySize=auto;html=1;exitX=0;exitY=0.5;exitDx=0;exitDy=0;entryX=0.5;entryY=1;entryDx=0;entryDy=0;" edge="1" parent="1" source="-yfBrM63y5aBobuTD75u-51" target="-yfBrM63y5aBobuTD75u-4">
          <mxGeometry relative="1" as="geometry" />
        </mxCell>
        <mxCell id="-yfBrM63y5aBobuTD75u-51" value="Record" style="rhombus;whiteSpace=wrap;html=1;rounded=0;" vertex="1" parent="1">
          <mxGeometry x="1140" y="1160" width="80" height="80" as="geometry" />
        </mxCell>
        <mxCell id="-yfBrM63y5aBobuTD75u-53" value="Date" style="ellipse;whiteSpace=wrap;html=1;" vertex="1" parent="1">
          <mxGeometry x="1210" y="1038" width="80" height="40" as="geometry" />
        </mxCell>
        <mxCell id="-yfBrM63y5aBobuTD75u-54" value="Time" style="ellipse;whiteSpace=wrap;html=1;" vertex="1" parent="1">
          <mxGeometry x="1090" y="1038" width="80" height="40" as="geometry" />
        </mxCell>
        <mxCell id="-yfBrM63y5aBobuTD75u-59" value="M" style="text;html=1;align=center;verticalAlign=middle;resizable=0;points=[];autosize=1;strokeColor=none;fillColor=none;" vertex="1" parent="1">
          <mxGeometry x="815" y="1198" width="30" height="30" as="geometry" />
        </mxCell>
        <mxCell id="-yfBrM63y5aBobuTD75u-60" value="M" style="text;html=1;align=center;verticalAlign=middle;resizable=0;points=[];autosize=1;strokeColor=none;fillColor=none;" vertex="1" parent="1">
          <mxGeometry x="1145" y="1320" width="30" height="30" as="geometry" />
        </mxCell>
        <mxCell id="-yfBrM63y5aBobuTD75u-61" value="M" style="text;html=1;align=center;verticalAlign=middle;resizable=0;points=[];autosize=1;strokeColor=none;fillColor=none;" vertex="1" parent="1">
          <mxGeometry x="1415" y="1200" width="30" height="30" as="geometry" />
        </mxCell>
        <mxCell id="-yfBrM63y5aBobuTD75u-62" value="Supervisioned" style="rhombus;whiteSpace=wrap;html=1;rounded=0;" vertex="1" parent="1">
          <mxGeometry x="1480" y="850" width="80" height="80" as="geometry" />
        </mxCell>
        <mxCell id="-yfBrM63y5aBobuTD75u-64" style="edgeStyle=orthogonalEdgeStyle;rounded=0;orthogonalLoop=1;jettySize=auto;html=1;entryX=0.414;entryY=1.022;entryDx=0;entryDy=0;entryPerimeter=0;" edge="1" parent="1" source="-yfBrM63y5aBobuTD75u-62" target="-yfBrM63y5aBobuTD75u-2">
          <mxGeometry relative="1" as="geometry" />
        </mxCell>
        <mxCell id="-yfBrM63y5aBobuTD75u-65" value="1" style="text;html=1;align=center;verticalAlign=middle;resizable=0;points=[];autosize=1;strokeColor=none;fillColor=none;" vertex="1" parent="1">
          <mxGeometry x="1495" y="1138" width="30" height="30" as="geometry" />
        </mxCell>
        <mxCell id="-yfBrM63y5aBobuTD75u-66" value="1" style="text;html=1;align=center;verticalAlign=middle;resizable=0;points=[];autosize=1;strokeColor=none;fillColor=none;" vertex="1" parent="1">
          <mxGeometry x="1485" y="638" width="30" height="30" as="geometry" />
        </mxCell>
        <mxCell id="-yfBrM63y5aBobuTD75u-70" style="edgeStyle=orthogonalEdgeStyle;rounded=0;orthogonalLoop=1;jettySize=auto;html=1;entryX=1;entryY=0.5;entryDx=0;entryDy=0;" edge="1" parent="1" source="-yfBrM63y5aBobuTD75u-68" target="-yfBrM63y5aBobuTD75u-2">
          <mxGeometry relative="1" as="geometry" />
        </mxCell>
        <mxCell id="-yfBrM63y5aBobuTD75u-68" value="Serve" style="rhombus;whiteSpace=wrap;html=1;rounded=0;" vertex="1" parent="1">
          <mxGeometry x="1580" y="810" width="80" height="80" as="geometry" />
        </mxCell>
        <mxCell id="-yfBrM63y5aBobuTD75u-71" value="1" style="text;html=1;align=center;verticalAlign=middle;resizable=0;points=[];autosize=1;strokeColor=none;fillColor=none;" vertex="1" parent="1">
          <mxGeometry x="1585" y="1138" width="30" height="30" as="geometry" />
        </mxCell>
        <mxCell id="-yfBrM63y5aBobuTD75u-72" value="1" style="text;html=1;align=center;verticalAlign=middle;resizable=0;points=[];autosize=1;strokeColor=none;fillColor=none;" vertex="1" parent="1">
          <mxGeometry x="1595" y="568" width="30" height="30" as="geometry" />
        </mxCell>
        <mxCell id="-yfBrM63y5aBobuTD75u-73" value="1" style="text;html=1;align=center;verticalAlign=middle;resizable=0;points=[];autosize=1;strokeColor=none;fillColor=none;" vertex="1" parent="1">
          <mxGeometry x="1590" y="628" width="30" height="30" as="geometry" />
        </mxCell>
        <mxCell id="-yfBrM63y5aBobuTD75u-74" value="M" style="text;html=1;align=center;verticalAlign=middle;resizable=0;points=[];autosize=1;strokeColor=none;fillColor=none;" vertex="1" parent="1">
          <mxGeometry x="1580" y="1168" width="30" height="30" as="geometry" />
        </mxCell>
      </root>
    </mxGraphModel>
  </diagram>
</mxfile>
